<?xml version="1.0" encoding="UTF-8"?>
<svg id="Layer_2" data-name="Layer 2" xmlns="http://www.w3.org/2000/svg" viewBox="0 0 366.4 466.89">
  <defs>
    <style>
      .cls-1 {
        fill: #a0a0a0;
        stroke-width: 0px;
      }
    </style>
  </defs>
  <g id="Layer_1-2" data-name="Layer 1">
    <path class="cls-1" d="M.62,0h64.97c5.69,10.11,28.82,60.3-1.84,164.61-5.84,19.92-18.23,53.24-23.22,64.42l-1.73,3.85,3.65,2.1c1.94,1.12,4.78,1.94,8.94,2.58,42.69,6.58,281.3-7.73,314.73-10.47l.29,239.56h-62.88s-.26-182.91-.26-182.91l-5.8,1.44c-49.09,12.27-182.85,4.47-215.05,1.13-7.27-.75-12.27-1.25-14.17-1.24l-4.67-.02-.63,181.82-62.94.02L.62,0Z"/>
  </g>
</svg>