<svg width="236" height="43" viewBox="0 0 236 43" fill="none" xmlns="http://www.w3.org/2000/svg">
<g clip-path="url(#clip0_185_750)">
<path d="M141.564 38.1179C141.564 38.854 141.455 39.5189 141.237 40.1056C141.019 40.6959 140.714 41.1972 140.316 41.6097C139.919 42.0222 139.448 42.3386 138.893 42.5591C138.341 42.7795 137.73 42.8898 137.065 42.8898H133.621V33.3496H137.065C137.733 33.3496 138.341 33.4599 138.893 33.6803C139.445 33.9008 139.919 34.2172 140.316 34.6297C140.71 35.0422 141.019 35.5435 141.237 36.1338C141.455 36.7241 141.564 37.3819 141.564 38.1144V38.1179ZM140.858 38.1179C140.858 37.453 140.766 36.8592 140.584 36.3365C140.401 35.8138 140.144 35.3764 139.81 35.0137C139.476 34.6546 139.076 34.3808 138.612 34.1923C138.144 34.0039 137.631 33.9079 137.065 33.9079H134.306V42.328H137.065C137.628 42.328 138.144 42.232 138.612 42.0435C139.079 41.855 139.476 41.5812 139.81 41.2221C140.144 40.863 140.401 40.4221 140.584 39.8994C140.766 39.3767 140.858 38.7829 140.858 38.1144V38.1179Z" fill="#A0A0A0"/>
<path d="M153.412 42.3173L153.398 42.8898H147.746V33.3496H153.398V33.9221H148.435V37.7801H152.569V38.3384H148.435V42.3173H153.412Z" fill="#A0A0A0"/>
<path d="M164.051 34.5124C164.012 34.587 163.953 34.6261 163.879 34.6261C163.823 34.6261 163.745 34.5835 163.657 34.5017C163.566 34.4199 163.443 34.3275 163.288 34.2243C163.134 34.1248 162.94 34.0288 162.705 33.9434C162.473 33.8581 162.185 33.8154 161.84 33.8154C161.496 33.8154 161.197 33.8652 160.937 33.9648C160.677 34.0643 160.459 34.1995 160.283 34.3701C160.108 34.5408 159.974 34.7399 159.883 34.9639C159.791 35.188 159.746 35.4262 159.746 35.6715C159.746 35.9951 159.812 36.2618 159.949 36.4752C160.086 36.6849 160.262 36.8663 160.487 37.0156C160.709 37.165 160.962 37.2894 161.243 37.389C161.524 37.4885 161.816 37.5917 162.111 37.6877C162.41 37.7872 162.698 37.8939 162.979 38.0148C163.26 38.1357 163.513 38.285 163.735 38.4628C163.956 38.6406 164.135 38.8646 164.272 39.1278C164.41 39.3909 164.476 39.718 164.476 40.1092C164.476 40.5003 164.41 40.8843 164.272 41.2399C164.135 41.5919 163.939 41.9013 163.682 42.1608C163.425 42.4204 163.109 42.6266 162.737 42.776C162.364 42.9253 161.939 43 161.457 43C160.835 43 160.301 42.8898 159.851 42.6658C159.401 42.4417 159.007 42.1395 158.67 41.7519L158.856 41.4568C158.909 41.3892 158.972 41.3572 159.043 41.3572C159.081 41.3572 159.134 41.3857 159.197 41.439C159.261 41.4924 159.334 41.5599 159.422 41.6381C159.51 41.7164 159.619 41.8017 159.742 41.8942C159.865 41.9866 160.009 42.0719 160.174 42.1502C160.34 42.2284 160.529 42.296 160.74 42.3493C160.955 42.4026 161.197 42.4311 161.468 42.4311C161.84 42.4311 162.174 42.3742 162.466 42.2604C162.758 42.1466 163.007 41.9902 163.208 41.791C163.408 41.5919 163.562 41.3572 163.671 41.087C163.777 40.8168 163.833 40.5252 163.833 40.2123C163.833 39.8745 163.766 39.5971 163.629 39.3802C163.492 39.1633 163.316 38.982 163.092 38.8326C162.867 38.6833 162.617 38.5624 162.336 38.4664C162.055 38.3668 161.763 38.2708 161.468 38.1748C161.169 38.0788 160.881 37.9757 160.6 37.8583C160.318 37.741 160.065 37.5917 159.844 37.4103C159.623 37.229 159.443 37.0014 159.306 36.7312C159.169 36.4609 159.102 36.1196 159.102 35.7107C159.102 35.3906 159.162 35.0848 159.282 34.7862C159.401 34.491 159.577 34.2279 159.809 34.0003C160.041 33.7728 160.325 33.5914 160.666 33.4527C161.007 33.3141 161.394 33.2465 161.83 33.2465C162.318 33.2465 162.758 33.3247 163.144 33.4812C163.534 33.6376 163.886 33.8794 164.206 34.203L164.044 34.5124H164.051Z" fill="#A0A0A0"/>
<path d="M171.288 42.8898H170.602V33.3496H171.288V42.8898Z" fill="#A0A0A0"/>
<path d="M185.603 38.5624V41.9546C185.132 42.2924 184.629 42.5484 184.099 42.7298C183.565 42.9111 182.967 43 182.299 43C181.554 43 180.883 42.8862 180.285 42.6515C179.691 42.4204 179.182 42.0933 178.763 41.6666C178.345 41.2399 178.022 40.7279 177.797 40.1269C177.572 39.526 177.46 38.854 177.46 38.1179C177.46 37.3819 177.568 36.7134 177.79 36.1125C178.011 35.5115 178.324 34.9995 178.735 34.5764C179.147 34.1532 179.642 33.8225 180.226 33.5914C180.809 33.3603 181.463 33.243 182.19 33.243C182.549 33.243 182.883 33.2678 183.185 33.3176C183.491 33.3674 183.772 33.4421 184.035 33.5381C184.299 33.6341 184.542 33.755 184.77 33.8937C184.999 34.0323 185.213 34.1995 185.424 34.3808L185.238 34.6759C185.174 34.7826 185.083 34.8075 184.956 34.7506C184.89 34.7222 184.795 34.6617 184.668 34.5621C184.545 34.4626 184.373 34.3595 184.155 34.2528C183.937 34.1461 183.666 34.0501 183.347 33.9612C183.023 33.8759 182.633 33.8332 182.169 33.8332C181.558 33.8332 181.002 33.9328 180.507 34.1283C180.011 34.3275 179.589 34.6084 179.241 34.9782C178.894 35.348 178.623 35.796 178.437 36.3258C178.247 36.8556 178.152 37.453 178.152 38.1108C178.152 38.7686 178.247 39.3838 178.437 39.9171C178.626 40.4505 178.897 40.9056 179.256 41.279C179.614 41.6524 180.046 41.9368 180.559 42.1359C181.069 42.3351 181.646 42.4311 182.285 42.4311C182.566 42.4311 182.823 42.4133 183.062 42.3777C183.301 42.3422 183.526 42.2924 183.74 42.2248C183.955 42.1608 184.166 42.0791 184.366 41.983C184.57 41.887 184.774 41.7768 184.981 41.6559V39.0886H183.174C183.125 39.0886 183.083 39.0744 183.051 39.0424C183.02 39.0104 183.002 38.9749 183.002 38.9357V38.5588H185.6L185.603 38.5624Z" fill="#A0A0A0"/>
<path d="M199.142 33.3532V42.8933H198.822C198.766 42.8933 198.716 42.8827 198.678 42.8649C198.639 42.8435 198.604 42.808 198.569 42.7618L192.446 34.4839C192.46 34.619 192.467 34.747 192.467 34.8679V42.8969H191.866V33.3567H192.207C192.27 33.3567 192.316 33.3638 192.351 33.3816C192.383 33.3958 192.422 33.4314 192.46 33.4847L198.572 41.7413C198.558 41.6061 198.551 41.4781 198.551 41.3572V33.3567H199.145L199.142 33.3532Z" fill="#A0A0A0"/>
<path d="M44.2744 41.2861C44.3201 41.2861 44.3552 41.3003 44.3869 41.3323L44.654 41.6239C44.4571 41.8337 44.2463 42.0257 44.0178 42.1928C43.7894 42.36 43.5363 42.5057 43.2657 42.6231C42.9915 42.7404 42.6928 42.8329 42.3659 42.9004C42.039 42.9644 41.6806 43 41.2904 43C40.6367 43 40.0392 42.8862 39.4944 42.6515C38.9496 42.4204 38.4822 42.0933 38.0921 41.6666C37.7019 41.2434 37.3962 40.7279 37.1818 40.1269C36.9674 39.526 36.8584 38.854 36.8584 38.1179C36.8584 37.3819 36.9709 36.7347 37.1923 36.1374C37.4137 35.54 37.7265 35.0244 38.1237 34.5977C38.5244 34.1675 39.0024 33.8368 39.5647 33.5985C40.1235 33.3638 40.7421 33.243 41.4169 33.243C42.0918 33.243 42.633 33.3425 43.1286 33.5452C43.6277 33.7479 44.0776 34.0323 44.4888 34.4021L44.2814 34.7044C44.2463 34.7577 44.19 34.7862 44.1162 34.7862C44.0635 34.7862 43.9756 34.7364 43.8561 34.6368C43.7366 34.5373 43.5714 34.427 43.3571 34.3097C43.1427 34.1923 42.8791 34.0821 42.5592 33.9826C42.2429 33.883 41.8598 33.8332 41.4169 33.8332C40.8476 33.8332 40.3274 33.9328 39.8529 34.1283C39.3784 34.3275 38.9742 34.6084 38.6333 34.9782C38.2924 35.348 38.0288 35.796 37.8355 36.3258C37.6457 36.8556 37.5508 37.453 37.5508 38.1108C37.5508 38.7686 37.6492 39.3873 37.839 39.9171C38.0323 40.447 38.2994 40.895 38.6368 41.2612C38.9742 41.6275 39.3749 41.9084 39.8318 42.1039C40.2923 42.2995 40.7878 42.3991 41.3221 42.3991C41.6595 42.3991 41.9617 42.3777 42.2253 42.3315C42.4889 42.2853 42.7314 42.2177 42.9564 42.1288C43.1778 42.0399 43.3852 41.9297 43.575 41.7982C43.7648 41.6666 43.9545 41.5137 44.1408 41.3395C44.1619 41.3217 44.1865 41.3075 44.2076 41.2968C44.2287 41.2861 44.2533 41.279 44.2744 41.279V41.2861Z" fill="#A0A0A0"/>
<path d="M58.6951 38.1179C58.6951 38.854 58.5862 39.5224 58.3682 40.1234C58.1503 40.7243 57.8446 41.2363 57.4474 41.6595C57.0502 42.0826 56.5793 42.4133 56.0239 42.6444C55.4721 42.8755 54.8606 42.9929 54.1963 42.9929C53.532 42.9929 52.9205 42.8755 52.3722 42.6444C51.8204 42.4133 51.3494 42.0862 50.9523 41.6595C50.5586 41.2363 50.2493 40.7207 50.0314 40.1234C49.8135 39.5224 49.7046 38.854 49.7046 38.1179C49.7046 37.3819 49.8135 36.7205 50.0314 36.1196C50.2493 35.5186 50.5551 35.0066 50.9523 34.5835C51.3459 34.1603 51.8204 33.8297 52.3722 33.595C52.924 33.3603 53.532 33.243 54.1963 33.243C54.8606 33.243 55.4721 33.3603 56.0239 33.5914C56.5758 33.8225 57.0502 34.1532 57.4474 34.5799C57.841 35.0066 58.1503 35.5222 58.3682 36.1196C58.5862 36.7205 58.6951 37.3854 58.6951 38.1179ZM57.9887 38.1179C57.9887 37.453 57.8973 36.8556 57.7145 36.3258C57.5317 35.796 57.2752 35.3444 56.9413 34.9782C56.6074 34.6084 56.2067 34.3275 55.7428 34.1319C55.2753 33.9363 54.7622 33.8368 54.1963 33.8368C53.6305 33.8368 53.1243 33.9363 52.6569 34.1319C52.1894 34.3275 51.7888 34.6084 51.4549 34.9782C51.121 35.348 50.8609 35.796 50.6746 36.3258C50.4918 36.8556 50.397 37.453 50.397 38.1179C50.397 38.7828 50.4883 39.3873 50.6746 39.9136C50.8574 40.4434 51.1175 40.8914 51.4549 41.2577C51.7888 41.6275 52.1894 41.9084 52.6569 42.1004C53.1243 42.2924 53.6375 42.392 54.1963 42.392C54.7551 42.392 55.2753 42.296 55.7428 42.1004C56.2102 41.9084 56.6074 41.6275 56.9413 41.2577C57.2752 40.8879 57.5317 40.4398 57.7145 39.9136C57.8973 39.3873 57.9887 38.7864 57.9887 38.1179Z" fill="#A0A0A0"/>
<path d="M72.1422 33.3532V42.8933H71.8224C71.7662 42.8933 71.717 42.8827 71.6783 42.8649C71.6397 42.8435 71.6045 42.808 71.5694 42.7618L65.4468 34.4839C65.4609 34.619 65.4679 34.747 65.4679 34.8679V42.8969H64.8669V33.3567H65.2078C65.2711 33.3567 65.3167 33.3638 65.3519 33.3816C65.3835 33.3958 65.4222 33.4314 65.4608 33.4847L71.5729 41.7413C71.5588 41.6061 71.5518 41.4781 71.5518 41.3572V33.3567H72.1458L72.1422 33.3532Z" fill="#A0A0A0"/>
<path d="M85.7265 41.2861C85.7722 41.2861 85.8073 41.3003 85.839 41.3323L86.1061 41.6239C85.9093 41.8337 85.6984 42.0257 85.4699 42.1928C85.2415 42.36 84.9884 42.5057 84.7178 42.6231C84.4436 42.7404 84.1449 42.8329 83.818 42.9004C83.4911 42.9644 83.1327 43 82.7425 43C82.0888 43 81.4913 42.8862 80.9465 42.6515C80.4017 42.4204 79.9343 42.0933 79.5442 41.6666C79.154 41.2434 78.8483 40.7279 78.6339 40.1269C78.4195 39.526 78.3105 38.854 78.3105 38.1179C78.3105 37.3819 78.423 36.7347 78.6444 36.1374C78.8658 35.54 79.1786 35.0244 79.5758 34.5977C79.9765 34.1675 80.4545 33.8368 81.0168 33.5985C81.5757 33.3638 82.1942 33.243 82.8691 33.243C83.5439 33.243 84.0851 33.3425 84.5807 33.5452C85.0798 33.7479 85.5297 34.0323 85.9409 34.4021L85.7335 34.7044C85.6984 34.7577 85.6421 34.7862 85.5683 34.7862C85.5156 34.7862 85.4277 34.7364 85.3082 34.6368C85.1887 34.5373 85.0236 34.427 84.8092 34.3097C84.5948 34.1923 84.3312 34.0821 84.0113 33.9826C83.695 33.883 83.3119 33.8332 82.8691 33.8332C82.2997 33.8332 81.7795 33.9328 81.305 34.1283C80.8305 34.3275 80.4264 34.6084 80.0854 34.9782C79.7445 35.348 79.4809 35.796 79.2876 36.3258C79.0978 36.8556 79.0029 37.453 79.0029 38.1108C79.0029 38.7686 79.1013 39.3873 79.2911 39.9171C79.4844 40.447 79.7515 40.895 80.0889 41.2612C80.4264 41.6275 80.827 41.9084 81.2839 42.1039C81.7444 42.2995 82.2399 42.3991 82.7742 42.3991C83.1116 42.3991 83.4138 42.3777 83.6774 42.3315C83.941 42.2853 84.1835 42.2177 84.4085 42.1288C84.6299 42.0399 84.8373 41.9297 85.0271 41.7982C85.2169 41.6666 85.4066 41.5137 85.5929 41.3395C85.614 41.3217 85.6386 41.3075 85.6597 41.2968C85.6808 41.2861 85.7054 41.279 85.7265 41.279V41.2861Z" fill="#A0A0A0"/>
<path d="M97.5955 42.3173L97.5815 42.8898H91.9299V33.3496H97.5815V33.9221H92.6188V37.7801H96.752V38.3384H92.6188V42.3173H97.5955Z" fill="#A0A0A0"/>
<path d="M106.098 33.3532C107.205 33.3532 108.038 33.5985 108.6 34.0892C109.162 34.5799 109.444 35.2769 109.444 36.1871C109.444 36.6067 109.366 36.9907 109.212 37.3392C109.057 37.6912 108.835 37.9935 108.544 38.2459C108.256 38.4984 107.904 38.6975 107.489 38.8397C107.075 38.982 106.611 39.0531 106.098 39.0531H104.344V42.8969H103.658V33.3567H106.098V33.3532ZM106.098 38.4948C106.512 38.4948 106.881 38.4379 107.212 38.3206C107.542 38.2033 107.82 38.0432 108.048 37.837C108.277 37.6308 108.452 37.3854 108.575 37.1045C108.698 36.8236 108.758 36.5178 108.758 36.1836C108.758 35.4511 108.537 34.8857 108.09 34.491C107.644 34.0963 106.983 33.8972 106.098 33.8972H104.344V38.4948H106.098Z" fill="#A0A0A0"/>
<path d="M121.488 33.9399H118.177V42.8933H117.492V33.9399H114.16V33.3532H121.488V33.9399Z" fill="#A0A0A0"/>
<path d="M13.0676 0.120895H11.8304L0 24.9153H2.87852L5.35637 19.6563C5.61294 19.1301 6.11554 18.7994 6.67437 18.7994H17.6999L20.5011 24.9153H24.2372L13.0676 0.120895ZM12.0694 6.20838L16.5752 16.4419H7.0153L12.0729 6.20838H12.0694Z" fill="#CEC3AA"/>
<path d="M34.7988 11.9759H43.6277V9.40503H34.7988V3.50955H50.3267L49.694 0.938725H31.4001V24.9153H49.694L50.3231 22.3445H34.7988V11.9759Z" fill="#CEC3AA"/>
<path d="M76.8449 18.4296C76.8343 18.2767 76.8238 18.1202 76.8062 17.9744C76.6692 16.8153 76.2052 15.7983 75.4355 14.9556C74.5568 13.9884 73.4813 13.2097 72.2372 12.6372C71.9771 12.5163 71.6959 12.3954 71.3796 12.2603C70.3533 11.8621 69.095 11.4247 67.6435 10.9625C66.1708 10.4895 65.0707 10.102 64.2729 9.78194C63.816 9.59704 63.3837 9.37658 62.9408 9.09212C62.853 9.04589 62.7827 9.00678 62.7475 8.98189C62.5507 8.85033 62.3609 8.70098 62.15 8.51964L62.027 8.42363C61.6263 8.09295 61.3663 7.7267 61.2257 7.27156C61.1589 7.09022 61.1132 6.88754 61.0886 6.67419L61.0605 6.29017C61.0605 5.65724 61.2573 5.08832 61.6755 4.55139C61.7564 4.44472 61.8443 4.3416 61.9391 4.24204C61.9813 4.19937 62.0446 4.14603 62.1219 4.08559C63.1166 3.28554 64.3186 2.81262 65.5909 2.72017C65.9389 2.69528 66.3044 2.68106 66.7086 2.68106C68.0195 2.68106 69.2883 2.94774 70.529 3.48466C71.471 4.07136 72.1879 4.72918 72.7151 5.51501L72.8909 5.77814H74.3776V2.32548L74.2651 1.88456L73.9101 1.72811C73.3337 1.47209 72.6976 1.23385 72.0122 1.02406C71.4217 0.839163 70.8559 0.689821 70.2795 0.565369C66.9159 -0.167121 64.3186 0.0640042 62.1606 0.920946C60.818 1.45431 59.746 2.22236 58.9763 3.20375C58.1855 4.21359 57.7848 5.387 57.7848 6.68486C57.7848 6.79153 57.7883 6.89821 57.7953 7.01199C57.8059 7.15422 57.8164 7.2929 57.834 7.43513C57.9711 8.57298 58.4174 9.57215 59.1626 10.3971C59.6757 10.9696 60.2662 11.4816 60.9129 11.919C61.0253 11.9936 61.2432 12.1181 61.5666 12.2817C62.9619 12.9928 64.4662 13.5902 66.0373 14.056L67.3025 14.4365C68.5749 14.8205 69.4289 15.0907 69.8401 15.2436C70.9016 15.6312 71.8084 16.1539 72.5464 16.7975C72.7644 16.9895 72.9577 17.2064 73.1264 17.4731C73.39 17.8464 73.5552 18.2802 73.6114 18.7532C73.6219 18.8421 73.629 18.931 73.6395 19.1763C73.6395 19.8626 73.4005 20.5168 72.9331 21.1178C72.4937 21.6796 71.8716 22.1596 71.0703 22.5472C70.4728 22.853 69.8542 23.0592 69.2321 23.1552C69.0107 23.1872 68.7893 23.2157 68.5538 23.237L67.9 23.2868C67.1303 23.3294 66.2481 23.3188 65.2816 23.2548C64.2237 23.1872 63.215 22.917 62.1535 22.3978C61.5385 22.0671 61.0675 21.74 60.7582 21.4271C60.2521 20.9151 59.7214 20.2893 59.1344 19.4963L58.9552 19.2545H57.4861V22.725L57.5704 23.0983L57.834 23.2761C58.9903 24.0477 60.2556 24.6806 61.5982 25.15C62.9549 25.6229 64.8106 25.8612 67.1092 25.8612C68.9474 25.8612 70.6169 25.5447 72.0649 24.9224C73.5481 24.2895 74.7255 23.429 75.555 22.3623C76.4161 21.2635 76.8519 20.0475 76.8519 18.7425C76.8519 18.6358 76.8519 18.5363 76.8449 18.4296Z" fill="#CEC3AA"/>
<path d="M109.377 0.938725H84.658L84.0148 3.50955H95.318V24.9153H98.7167V3.50955H110.016L109.377 0.938725Z" fill="#CEC3AA"/>
<path d="M147.613 11.9759H156.442V9.40503H147.613V3.50955H163.137L162.508 0.938725H144.214V24.9153H162.508L163.137 22.3445H147.613V11.9759Z" fill="#CEC3AA"/>
<path d="M195.655 0.938725H170.943L170.3 3.50955H181.603V24.9153H184.999V3.50955H196.302L195.655 0.938725Z" fill="#CEC3AA"/>
<path d="M206.856 0.938725H203.461V24.9153H206.856V0.938725Z" fill="#CEC3AA"/>
<path d="M234.837 19.2794L234.432 19.3754L234.267 19.6848C234.035 20.1115 233.578 20.5879 232.949 21.068C232.292 21.5693 231.406 22.0067 230.313 22.3729C229.213 22.7392 227.955 22.9276 226.563 22.9276C224.69 22.9276 223.066 22.4796 221.744 21.5978C220.412 20.7124 219.397 19.5141 218.722 18.0349C218.033 16.5272 217.681 14.8169 217.681 12.9572C217.681 11.0976 218.033 9.36947 218.722 7.84049C219.393 6.3435 220.409 5.13454 221.741 4.24915C223.062 3.36732 224.683 2.92285 226.56 2.92285C227.983 2.92285 229.269 3.14686 230.373 3.58778C231.501 4.03936 232.404 4.53361 233.055 5.05631C233.895 5.73191 234.162 6.0626 234.295 6.28306L234.468 6.57107H235.961V3.07219L235.87 2.68105L235.585 2.50682C234.819 2.0339 233.561 1.55743 231.849 1.09518C230.134 0.632928 228.531 0.398247 227.087 0.398247C224.363 0.398247 221.987 0.967171 220.029 2.08724C218.054 3.21442 216.536 4.74696 215.523 6.6493C214.525 8.53742 214.016 10.6602 214.016 12.9608C214.016 15.2614 214.525 17.3557 215.527 19.2367C216.536 21.1391 218.054 22.6681 220.033 23.7881C221.994 24.894 224.366 25.4558 227.09 25.4558C228.426 25.4558 230.014 25.2176 231.81 24.7446C233.638 24.2646 234.889 23.8059 235.722 23.2832L235.996 23.1054V19.2794H234.833H234.837Z" fill="#CEC3AA"/>
<path d="M117.214 0H120.74C121.049 0.554701 122.304 3.31043 120.641 9.03167C120.325 10.1233 119.654 11.9545 119.383 12.5661L119.288 12.7759L119.485 12.8897C119.59 12.9501 119.745 12.9964 119.97 13.0319C122.286 13.3946 135.227 12.6088 137.041 12.4559L137.055 25.6016H133.646L133.632 15.5636L133.319 15.6419C130.655 16.3139 123.4 15.8872 121.654 15.7023C121.26 15.6596 120.989 15.6347 120.884 15.6347H120.631L120.596 25.6123H117.183L117.214 0Z" fill="#A0A0A0"/>
<path d="M31.1119 38.3775H7.47923V38.9749H31.1119V38.3775Z" fill="#CEC3AA"/>
<path d="M228.521 38.3775H204.888V38.9749H228.521V38.3775Z" fill="#CEC3AA"/>
</g>
<defs>
<clipPath id="clip0_185_750">
<rect width="236" height="43" fill="white"/>
</clipPath>
</defs>
</svg>
